# xmcd CD database file
#
# Track frame offsets:
#	150
#	11544
#	27248
#	47954
#	68606
#	84021
#	96854
#	116759
#	139823
#	155714
#	165193
#	173412
#	187315
#	199156
#
# Disc length: 2839 seconds
#
# Revision: 1
# Processed by: cddbd v1.5.1PL0 Copyright (c) Steve Scherf et al.
# Submitted via: CDex 1.51
#
DISCID=b10b150e
DTITLE=Various Artist - Americana Gems [Spit&Polish comp]
DYEAR=2003
DGENRE=Country
TTITLE0=Too Late For  Tonight - Laura Cantrell
TTITLE1=Life Of A Fool - Paul Burch
TTITLE2=Bible And A Gun - Jason Ringenberg and Steve Earle
TTITLE3=Saved - John Herald
TTITLE4=No Frills Friend - Amy Allison
TTITLE5=Are We Ever Gonna Have Sex Again - Amy Rigby
TTITLE6=When All Of Us Get Famous - Neil Cleary
TTITLE7=Country Music Once Again - Tom Clelland
TTITLE8=One Excuse Too Many - John Miller
TTITLE9=If I Could, Then I Would - Tim Carrol
TTITLE10=Not About Love - She-Haw
TTITLE11=Lawdy Miss Clawdy - Steve Young
TTITLE12=Eat At Home - Tom Armstrong
TTITLE13=Lonesome Blue - Radio Sweethearts
EXTD=YEAR: 2003
EXTT0=
EXTT1=
EXTT2=
EXTT3=
EXTT4=
EXTT5=
EXTT6=
EXTT7=
EXTT8=
EXTT9=
EXTT10=
EXTT11=
EXTT12=
EXTT13=
PLAYORDER=
